<svg width="295" height="101" viewBox="0 0 295 101" fill="none" xmlns="http://www.w3.org/2000/svg">
<path d="M56.1482 31.7277H39.2611V26.4398H56.1482C61.9774 26.4398 66.7027 31.1748 66.7027 37.0157V53.9372H61.4254V37.0157C61.4254 34.0953 59.0628 31.7277 56.1482 31.7277Z" fill="#FE346E" fill-opacity="0.85"/>
<path d="M37.1502 61.3403H54.0372V66.6283H37.1502C31.3211 66.6283 26.5956 61.8934 26.5956 56.0524V39.1309H31.8729V56.0524C31.8729 58.9729 34.2356 61.3403 37.1502 61.3403Z" fill="#FE346E" fill-opacity="0.85"/>
<path fill-rule="evenodd" clip-rule="evenodd" d="M57.2036 46.534C57.2036 52.375 52.4784 57.1099 46.6493 57.1099C40.8202 57.1099 36.0948 52.375 36.0948 46.534C36.0948 40.6931 40.8202 35.9581 46.6493 35.9581C52.4784 35.9581 57.2036 40.6931 57.2036 46.534ZM51.9266 46.534C51.9266 49.4545 49.5639 51.822 46.6493 51.822C43.7347 51.822 41.372 49.4545 41.372 46.534C41.372 43.6136 43.7347 41.2461 46.6493 41.2461C49.5639 41.2461 51.9266 43.6136 51.9266 46.534Z" fill="#FE346E" fill-opacity="0.85"/>
<path d="M89.2235 63.2604C87.225 63.2604 85.426 62.9172 83.8264 62.2303C82.2274 61.5148 80.9709 60.5138 80.0574 59.2262C79.1434 57.9386 78.6864 56.4363 78.6864 54.7193H83.9125C84.0265 56.0069 84.5262 57.0655 85.4117 57.8952C86.3252 58.7254 87.596 59.14 89.2235 59.14C90.9086 59.14 92.2221 58.7397 93.1646 57.9386C94.1066 57.1084 94.5778 56.0497 94.5778 54.7621C94.5778 53.7606 94.2781 52.9452 93.6786 52.3158C93.1071 51.6863 92.3793 51.1999 91.4938 50.8565C90.6373 50.5131 89.4378 50.1412 87.8957 49.7406C85.9542 49.2256 84.3695 48.7105 83.1415 48.1955C81.9419 47.6518 80.9139 46.822 80.0574 45.706C79.2004 44.5901 78.7724 43.1022 78.7724 41.2423C78.7724 39.5255 79.2004 38.0233 80.0574 36.7357C80.9139 35.4481 82.1134 34.4609 83.6555 33.7742C85.1975 33.0874 86.9823 32.7441 89.0098 32.7441C91.8938 32.7441 94.2496 33.4737 96.0771 34.933C97.9331 36.3637 98.9611 38.3381 99.1612 40.856H93.7641C93.6786 39.7687 93.1646 38.8388 92.2221 38.0662C91.2795 37.2936 90.0378 36.9074 88.4958 36.9074C87.0962 36.9074 85.9542 37.265 85.0687 37.9804C84.1837 38.6957 83.741 39.7258 83.741 41.0707C83.741 41.9863 84.0122 42.7445 84.5547 43.3454C85.1257 43.9177 85.8397 44.3755 86.6968 44.7189C87.5533 45.0622 88.7238 45.4342 90.2088 45.8348C92.1793 46.3785 93.7783 46.9221 95.0064 47.4658C96.2629 48.0094 97.3194 48.8535 98.1759 49.9981C99.0614 51.114 99.5037 52.6162 99.5037 54.5046C99.5037 56.0212 99.0899 57.4521 98.2619 58.7968C97.4619 60.1415 96.2771 61.2287 94.7066 62.059C93.1646 62.8601 91.3371 63.2604 89.2235 63.2604Z" fill="white"/>
<path d="M115.032 38.9246C116.888 38.9246 118.544 39.3109 120.001 40.0835C121.485 40.856 122.642 42.0006 123.47 43.5171C124.298 45.0336 124.712 46.8649 124.712 49.0109V62.96H119.872V49.7406C119.872 47.6231 119.344 46.0065 118.287 44.8906C117.231 43.746 115.788 43.1737 113.961 43.1737C112.133 43.1737 110.677 43.746 109.592 44.8906C108.535 46.0065 108.007 47.6231 108.007 49.7406V62.96H103.124V39.3109H108.007V42.0149C108.806 41.042 109.82 40.2838 111.048 39.7401C112.305 39.1965 113.633 38.9246 115.032 38.9246Z" fill="white"/>
<path d="M127.171 51.0282C127.171 48.6532 127.657 46.5502 128.628 44.7189C129.627 42.8876 130.969 41.4712 132.654 40.4697C134.367 39.4397 136.252 38.9246 138.308 38.9246C140.165 38.9246 141.778 39.2966 143.148 40.0406C144.548 40.7559 145.661 41.6572 146.489 42.7445V39.3109H151.415V62.96H146.489V59.4403C145.661 60.5566 144.533 61.4863 143.106 62.2303C141.678 62.9743 140.05 63.3466 138.223 63.3466C136.195 63.3466 134.339 62.8315 132.654 61.8014C130.969 60.7422 129.627 59.2833 128.628 57.4235C127.657 55.5347 127.171 53.4031 127.171 51.0282ZM146.489 51.114C146.489 49.4831 146.147 48.0667 145.461 46.8649C144.805 45.6632 143.934 44.7475 142.849 44.118C141.764 43.4885 140.593 43.1737 139.336 43.1737C138.08 43.1737 136.909 43.4885 135.824 44.118C134.738 44.7189 133.853 45.6202 133.168 46.822C132.511 47.9951 132.183 49.3972 132.183 51.0282C132.183 52.6592 132.511 54.09 133.168 55.32C133.853 56.5505 134.738 57.4949 135.824 58.1527C136.938 58.7825 138.109 59.0972 139.336 59.0972C140.593 59.0972 141.764 58.7825 142.849 58.1527C143.934 57.5235 144.805 56.6076 145.461 55.4062C146.147 54.1757 146.489 52.745 146.489 51.114Z" fill="white"/>
<path d="M160.57 42.7875C161.398 41.7002 162.527 40.7845 163.954 40.0406C165.382 39.2966 166.995 38.9246 168.794 38.9246C170.85 38.9246 172.721 39.4397 174.406 40.4697C176.119 41.4712 177.461 42.8876 178.432 44.7189C179.403 46.5502 179.888 48.6532 179.888 51.0282C179.888 53.4031 179.403 55.5347 178.432 57.4235C177.461 59.2833 176.119 60.7422 174.406 61.8014C172.721 62.8315 170.85 63.3466 168.794 63.3466C166.995 63.3466 165.396 62.9886 163.997 62.2731C162.598 61.5296 161.456 60.6137 160.57 59.5265V74.2054H155.687V39.3109H160.57V42.7875ZM174.92 51.0282C174.92 49.3972 174.577 47.9951 173.892 46.822C173.235 45.6202 172.35 44.7189 171.236 44.118C170.151 43.4885 168.98 43.1737 167.724 43.1737C166.496 43.1737 165.325 43.4885 164.211 44.118C163.126 44.7475 162.241 45.6632 161.556 46.8649C160.899 48.0667 160.57 49.4831 160.57 51.114C160.57 52.745 160.899 54.1757 161.556 55.4062C162.241 56.6076 163.126 57.5235 164.211 58.1527C165.325 58.7825 166.496 59.0972 167.724 59.0972C168.98 59.0972 170.151 58.7825 171.236 58.1527C172.35 57.4949 173.235 56.5505 173.892 55.32C174.577 54.09 174.92 52.6592 174.92 51.0282Z" fill="white"/>
<path d="M192.384 63.2604C190.386 63.2604 188.587 62.9172 186.987 62.2303C185.388 61.5148 184.132 60.5138 183.218 59.2262C182.304 57.9386 181.847 56.4363 181.847 54.7193H187.073C187.187 56.0069 187.687 57.0655 188.572 57.8952C189.486 58.7254 190.757 59.14 192.384 59.14C194.069 59.14 195.383 58.7397 196.325 57.9386C197.267 57.1084 197.739 56.0497 197.739 54.7621C197.739 53.7606 197.439 52.9452 196.839 52.3158C196.268 51.6863 195.54 51.1999 194.655 50.8565C193.798 50.5131 192.599 50.1412 191.057 49.7406C189.115 49.2256 187.53 48.7105 186.302 48.1955C185.103 47.6518 184.075 46.822 183.218 45.706C182.361 44.5901 181.933 43.1022 181.933 41.2423C181.933 39.5255 182.361 38.0233 183.218 36.7357C184.075 35.4481 185.274 34.4609 186.816 33.7742C188.358 33.0874 190.143 32.7441 192.17 32.7441C195.055 32.7441 197.41 33.4737 199.238 34.933C201.094 36.3637 202.122 38.3381 202.322 40.856H196.925C196.839 39.7687 196.325 38.8388 195.383 38.0662C194.44 37.2936 193.198 36.9074 191.656 36.9074C190.257 36.9074 189.115 37.265 188.23 37.9804C187.345 38.6957 186.902 39.7258 186.902 41.0707C186.902 41.9863 187.173 42.7445 187.716 43.3454C188.287 43.9177 189.001 44.3755 189.857 44.7189C190.714 45.0622 191.885 45.4342 193.37 45.8348C195.34 46.3785 196.939 46.9221 198.167 47.4658C199.424 48.0094 200.48 48.8535 201.337 49.9981C202.222 51.114 202.664 52.6162 202.664 54.5046C202.664 56.0212 202.251 57.4521 201.422 58.7968C200.623 60.1415 199.438 61.2287 197.867 62.059C196.325 62.8601 194.498 63.2604 192.384 63.2604Z" fill="white"/>
<path d="M218.492 38.9246C220.291 38.9246 221.891 39.3109 223.29 40.0835C224.718 40.856 225.831 42.0006 226.631 43.5171C227.459 45.0336 227.873 46.8649 227.873 49.0109V62.96H223.033V49.7406C223.033 47.6231 222.504 46.0065 221.448 44.8906C220.391 43.746 218.949 43.1738 217.122 43.1738C215.294 43.1738 213.838 43.746 212.753 44.8906C211.696 46.0065 211.168 47.6231 211.168 49.7406V62.96H206.285V31.199H211.168V42.0578C211.996 41.0563 213.038 40.2838 214.295 39.7401C215.58 39.1965 216.979 38.9246 218.492 38.9246Z" fill="white"/>
<path d="M242.197 63.3466C239.97 63.3466 237.957 62.8458 236.158 61.8443C234.359 60.8142 232.945 59.3832 231.917 57.552C230.889 55.6922 230.375 53.5464 230.375 51.114C230.375 48.7105 230.903 46.5788 231.96 44.7189C233.016 42.859 234.459 41.4283 236.286 40.4269C238.114 39.4254 240.155 38.9246 242.411 38.9246C244.667 38.9246 246.709 39.4254 248.537 40.4269C250.364 41.4283 251.806 42.859 252.863 44.7189C253.92 46.5788 254.448 48.7105 254.448 51.114C254.448 53.5173 253.905 55.6494 252.82 57.5092C251.735 59.369 250.25 60.8142 248.365 61.8443C246.509 62.8458 244.453 63.3466 242.197 63.3466ZM242.197 59.0972C243.454 59.0972 244.624 58.7968 245.71 58.1961C246.823 57.5949 247.722 56.6938 248.408 55.4918C249.093 54.2899 249.436 52.8308 249.436 51.114C249.436 49.3972 249.108 47.9522 248.451 46.7791C247.794 45.5773 246.923 44.6759 245.838 44.0751C244.753 43.4742 243.582 43.1737 242.326 43.1737C241.069 43.1737 239.898 43.4742 238.813 44.0751C237.757 44.6759 236.915 45.5773 236.286 46.7791C235.658 47.9522 235.344 49.3972 235.344 51.114C235.344 53.6606 235.986 55.6351 237.271 57.037C238.585 58.4103 240.227 59.0972 242.197 59.0972Z" fill="white"/>
<path d="M262.83 43.3025V56.3934C262.83 57.2802 263.03 57.9243 263.43 58.3246C263.858 58.6969 264.572 58.8825 265.571 58.8825H268.57V62.96H264.715C262.516 62.96 260.831 62.445 259.66 61.4149C258.49 60.3848 257.904 58.7111 257.904 56.3934V43.3025H255.12V39.3109H257.904V33.4308H262.83V39.3109H268.57V43.3025H262.83Z" fill="white"/>
</svg>
